<?xml version="1.0" encoding="UTF-8" standalone="no"?>
<!-- Created with Inkscape (http://www.inkscape.org/) -->

<svg
   width="1080mm"
   height="350mm"
   viewBox="0 0 1080 350"
   version="1.1"
   id="svg7286"
   inkscape:version="1.1.2 (0a00cf5339, 2022-02-04)"
   sodipodi:docname="logo lecopot 2025.svg"
   inkscape:export-filename="/media/maurin/Elements/001 images Lécopot/010 Charte visuelle Lécopot/010 logo lecopot/logo-lecopot-2025.png"
   inkscape:export-xdpi="25.400002"
   inkscape:export-ydpi="25.400002"
   xmlns:inkscape="http://www.inkscape.org/namespaces/inkscape"
   xmlns:sodipodi="http://sodipodi.sourceforge.net/DTD/sodipodi-0.dtd"
   xmlns="http://www.w3.org/2000/svg"
   xmlns:svg="http://www.w3.org/2000/svg"
   xmlns:rdf="http://www.w3.org/1999/02/22-rdf-syntax-ns#"
   xmlns:cc="http://creativecommons.org/ns#"
   xmlns:dc="http://purl.org/dc/elements/1.1/">
  <defs
     id="defs7280">
    <rect
       x="67.615898"
       y="35.176689"
       width="3830.908"
       height="1155.4882"
       id="rect3687" />
    <rect
       x="1.0008059"
       y="253.09184"
       width="512.88416"
       height="52.828903"
       id="rect6868" />
  </defs>
  <sodipodi:namedview
     id="base"
     pagecolor="#ffffff"
     bordercolor="#666666"
     borderopacity="1.0"
     inkscape:pageopacity="0.0"
     inkscape:pageshadow="2"
     inkscape:zoom="0.1004042"
     inkscape:cx="1887.3712"
     inkscape:cy="1075.6522"
     inkscape:document-units="mm"
     inkscape:current-layer="layer1"
     showgrid="false"
     fit-margin-top="0"
     fit-margin-left="0"
     fit-margin-right="0"
     fit-margin-bottom="0"
     inkscape:window-width="1920"
     inkscape:window-height="1012"
     inkscape:window-x="0"
     inkscape:window-y="0"
     inkscape:window-maximized="1"
     inkscape:pagecheckerboard="0"
     height="227mm"
     borderlayer="true"
     showguides="true"
     inkscape:guide-bbox="true" />
  <metadata
     id="metadata7283">
    <rdf:RDF>
      <cc:Work
         rdf:about="">
        <dc:format>image/svg+xml</dc:format>
        <dc:type
           rdf:resource="http://purl.org/dc/dcmitype/StillImage" />
      </cc:Work>
    </rdf:RDF>
  </metadata>
  <g
     inkscape:groupmode="layer"
     id="layer2"
     inkscape:label="noir"
     transform="translate(-16.067796,-111.54749)"
     style="display:none">
    <rect
       style="fill:#000000;fill-opacity:1;stroke:#09433a;stroke-width:0.629251;stroke-linecap:round;stroke-linejoin:round;paint-order:stroke fill markers"
       id="rect32015"
       width="1955.8566"
       height="837.51501"
       x="-446.59521"
       y="-140.32353"
       ry="20.623367"
       inkscape:export-filename="/media/maurin/Elements/001 images Lécopot/009 Charte visuelle Lécopot/010 logo lecopot/logo 2023 lécopot les toilettes sèches ss fd 1000x324.png"
       inkscape:export-xdpi="254.75983"
       inkscape:export-ydpi="254.75983" />
  </g>
  <g
     inkscape:groupmode="layer"
     id="layer3"
     inkscape:label="blanc"
     style="display:inline">
    <rect
       style="fill:#ffffff;fill-opacity:1;stroke:#09433a;stroke-width:0.374999;stroke-linecap:round;stroke-linejoin:round;paint-order:stroke fill markers"
       id="rect35097"
       width="1313.3855"
       height="823.26874"
       x="-1502.8444"
       y="-397.53653"
       ry="12.290399"
       inkscape:export-filename="/media/maurin/Elements/001 images Lécopot/010 Charte visuelle Lécopot/010 logo lecopot/rect35097.png"
       inkscape:export-xdpi="25.400002"
       inkscape:export-ydpi="25.400002" />
  </g>
  <g
     inkscape:label="Calque 1"
     inkscape:groupmode="layer"
     id="layer1"
     transform="translate(-16.067796,-111.54749)">
    <g
       id="g904"
       transform="matrix(0.90435184,0,0,0.90435184,53.516767,26.857046)">
      <path
         inkscape:connector-curvature="0"
         id="path11"
         d="m 332.37868,127.19015 c 0,0 25.70011,-18.53578 29.8959,-13.81438 4.19593,4.72139 18.53195,30.25179 5.94427,59.629 -12.5877,29.37739 -33.91703,30.07698 -40.2109,30.07698 l -6.23514,-3.09016 c 0,0 24.41746,-6.35269 26.16577,-32.4075 1.74827,-26.05503 -15.5599,-40.39394 -15.5599,-40.39394 z"
         style="fill:#a4641b;fill-opacity:1;fill-rule:nonzero;stroke:none;stroke-width:2.15388" />
      <path
         inkscape:connector-curvature="0"
         id="path43"
         d="m 198.63404,151.90361 c 0,0 -60.31637,-15.44563 -95.98159,37.71338 -35.665426,53.15923 -19.581121,96.52566 -34.266695,125.90304 -14.685578,29.37743 -12.587916,32.17531 -44.057237,38.47109 0,0 -14.685723,11.19157 -4.895248,13.98944 0,0 44.057146,-5.59576 86.7158,-2.1 42.65843,3.49789 87.02618,9.67305 99.42089,-1.69084 10.48979,-9.61706 21.03737,-21.74034 25.4657,-62.60141 0,0 -1.10708,-11.9482 -3.55385,-7.75155 -2.44896,4.19682 -3.67215,33.1658 -29.19734,50.65231 -18.53197,10.84178 -37.9382,-0.29085 -47.37887,-2.7391 -9.44089,-2.44808 -41.60971,-6.9947 -75.876424,6.29516 0,0 47.670064,-23.89922 56.411604,-66.21674 8.74151,-42.31721 -15.09309,-85.10059 9.73294,-105.03519 24.82583,-19.9347 35.37446,6.58613 35.37446,6.58613 0,0 20.68736,-23.43184 22.08586,-31.47572 z"
         style="fill:#0f786f;fill-opacity:1;fill-rule:nonzero;stroke:none;stroke-width:2.15388" />
      <path
         inkscape:connector-curvature="0"
         id="path45"
         d="m 312.79891,232.98365 c 13.287,-9.093 18.13196,7.59433 15.38492,19.58453 -3.8462,16.78715 -20.97941,36.02234 -41.60951,44.41581 0,0 1.25319,-46.9113 26.22459,-64.00034 z m 53.09093,11.8896 c 8.04215,-23.43194 -5.41976,-39.63569 -32.69326,-36.13833 -27.27351,3.49726 -86.13385,43.83326 -87.53246,110.63175 -1.39865,66.79933 46.85448,60.15441 61.5403,51.06138 14.68556,-9.09307 58.04358,-43.36731 58.04358,-43.36731 l -2.44766,-7.34426 c 0,0 -35.31565,30.07739 -56.64509,29.37802 -21.32921,-0.69952 -22.02857,-35.6732 -20.28028,-41.26875 0,0 71.97273,-39.51957 80.01487,-62.9525 z"
         style="fill:#0f786f;fill-opacity:1;fill-rule:nonzero;stroke:none;stroke-width:2.15388" />
      <path
         inkscape:connector-curvature="0"
         id="path47"
         d="m 465.2498,258.51357 26.22457,-15.73735 c 0,0 -1.97905,-34.27373 -20.16144,-34.97319 -31.81901,8.74331 -92.07948,50.71054 -95.92579,118.90812 0,0 0.3499,50.71137 34.61628,49.31242 34.26672,-1.39893 82.63873,-43.59922 84.38709,-47.4463 l -0.81673,-6.17905 c 0,0 -36.24721,29.49394 -54.07981,28.44478 -17.83286,-1.04919 -36.83198,-24.59644 -28.09047,-63.41644 8.74152,-38.82108 30.76879,-58.63967 43.35651,-56.54127 12.58791,2.09836 11.88857,24.48077 10.48979,27.62828 z"
         style="fill:#0f786f;fill-opacity:1;fill-rule:nonzero;stroke:none;stroke-width:2.15388" />
      <path
         inkscape:connector-curvature="0"
         id="path49"
         d="m 611.75757,315.17002 c -5.24489,19.23501 -15.38517,36.72214 -29.37159,37.4215 0,0 -31.11966,0.34989 -33.91689,-37.77128 -2.79727,-38.12064 15.03532,-83.93495 42.30882,-86.38304 27.2735,-2.44829 26.22457,67.49758 20.97966,86.73282 z m -39.16051,-90.23027 c -50.0015,27.62975 -69.23285,74.49233 -68.88318,108.76593 0.3499,34.27405 30.42046,42.55135 30.42046,42.55135 16.20196,4.08073 40.21102,2.21463 73.42854,-25.41424 33.21773,-27.62909 46.85464,-61.5529 46.85464,-98.27329 0,-36.72268 -31.81901,-55.25841 -81.82046,-27.62975 z"
         style="fill:#0f786f;fill-opacity:1;fill-rule:nonzero;stroke:none;stroke-width:2.15388" />
      <path
         inkscape:connector-curvature="0"
         id="path51"
         d="m 764.21021,321.4652 c -17.71522,26.8136 -34.6163,20.98435 -53.8476,8.74326 l 18.18237,-64.00083 c 0,0 44.75651,-20.28392 51.74957,-15.38773 6.99315,4.89594 1.24062,44.42247 -16.08434,70.6453 z m 36.3648,-115.06099 c -27.97288,-3.84704 -65.38661,34.97308 -65.38661,34.97308 0,0 12.93746,-38.70405 2.44771,-40.91853 -28.67228,0.69942 -67.48456,42.31746 -67.48456,42.31746 l -3.1468,16.43692 c 0,0 10.83943,-8.04346 16.78366,-10.84133 5.94427,-2.79767 25.52526,-15.73774 17.48306,20.63368 -9.8045,44.3473 -47.55375,172.06741 -47.55375,172.06741 l -13.98653,-1.39789 -14.68567,22.03202 86.366,-1.04894 5.24494,-12.24047 -35.66523,-4.89582 17.13318,-69.94631 c 35.3157,5.59575 55.25052,4.75639 87.06545,-36.02277 31.46943,-40.33508 43.35775,-127.3015 15.38515,-131.14851 z"
         style="fill:#0f786f;fill-opacity:1;fill-rule:nonzero;stroke:none;stroke-width:2.15388" />
      <path
         inkscape:connector-curvature="0"
         id="path53"
         d="m 835.54011,365.88095 c 0,-1.04921 4.77912,-29.14367 4.77912,-29.14367 l 29.13791,-3.0316 c 0,0 -20.62992,-41.96771 12.58772,-88.48138 l 5.94427,4.54645 2.44761,-22.03297 -19.58088,-1.74866 4.89515,6.99464 c 0,0 -44.63909,27.39461 -52.33156,77.75593 -6.99316,45.11519 12.12066,55.14126 12.12066,55.14126 z"
         style="fill:#1dcbbc;fill-opacity:1;fill-rule:nonzero;stroke:none;stroke-width:2.15388" />
      <path
         inkscape:connector-curvature="0"
         id="path55"
         d="m 841.83336,379.86913 c 0.3499,-1.39901 4.19735,-35.32275 4.19735,-35.32275 l 38.46109,-2.09831 -2.79722,6.99447 c 0,0 14.22015,8.51107 25.17695,1.0492 11.51096,-7.83815 19.57961,-14.33879 22.72663,-44.06596 l 11.88834,12.94003 c 0,0 9.0913,-2.79783 12.93746,-6.29513 0,0 -15.73467,36.02235 -59.44238,54.9078 -21.67873,10.49175 -44.75636,6.29511 -44.75636,6.29511 z"
         style="fill:#1dcbbc;fill-opacity:1;fill-rule:nonzero;stroke:none;stroke-width:2.15388" />
      <path
         inkscape:connector-curvature="0"
         id="path57"
         d="m 1032.7491,188.91751 -16.434,44.41592 -13.9864,1.04921 -9.09121,17.13628 17.13341,2.09847 c 0,0 -17.48302,53.50885 -18.18232,78.68984 -0.69925,25.18057 5.94422,47.21369 27.97282,40.21895 22.0286,-6.99454 72.7292,-44.76561 72.7292,-44.76561 0,0 1.049,-10.84149 -3.8461,-8.7432 -4.8954,2.09852 -25.1155,22.47935 -35.5479,23.78185 -9.3248,1.16534 -17.9502,0 -16.2019,-19.23524 1.7483,-19.23562 14.6858,-67.49844 14.6858,-67.49844 l 30.7701,-1.39895 12.5876,-19.2348 -38.8122,-3.14767 15.7348,-59.45417 z"
         style="fill:#1dcbbc;fill-opacity:1;fill-rule:nonzero;stroke:none;stroke-width:2.15388" />
      <path
         inkscape:connector-curvature="0"
         id="path59"
         d="m 924.58783,284.27764 19.58109,23.54811 28.67201,-18.65194 -6.52606,-1.86484 c 0,0 16.78373,-45.46578 -6.99321,-68.78155 -23.77686,-23.31466 -65.96961,3.73073 -65.96961,3.73073 l 3.73014,1.86486 -0.23345,4.89618 c 0,0 18.64805,-3.96316 25.17564,8.86084 6.52732,12.82247 8.85737,45.9317 8.85737,45.9317 z"
         style="fill:#1dcbbc;fill-opacity:1;fill-rule:nonzero;stroke:none;stroke-width:2.15388" />
      <path
         inkscape:connector-curvature="0"
         id="path61"
         d="m 284.6507,171.43095 27.62308,-3.84708 c 0,0 0.69937,29.37744 15.73472,35.49766 0,0 -42.83326,2.79789 -43.3578,-31.65058 z"
         style="fill:#e2a059;fill-opacity:1;fill-rule:nonzero;stroke:none;stroke-width:2.15388" />
      <path
         inkscape:connector-curvature="0"
         id="path63"
         d="m 225.73418,330.44234 c 0,0 -14.45257,24.01403 -34.73283,27.04535 -20.28029,3.0316 -91.610721,-13.28963 -117.2533,-7.69404 0,0 18.907653,-21.89311 24.476251,-31.47575 11.656139,-20.05066 15.384949,-49.66067 17.017149,-92.7947 1.63222,-43.1344 12.12205,-63.88465 32.4023,-70.87928 20.28008,-6.9946 42.65845,-4.89624 52.21522,-3.03144 0,0 -2.09939,9.79381 -23.4286,34.39115 0,0 -6.40996,-17.25437 -19.93071,-15.62189 -13.52013,1.63267 -23.07711,13.1725 -25.87435,24.83102 -2.79724,11.65723 2.68116,45.58106 3.03074,56.65585 0.34956,11.07527 1.98069,34.85558 -12.58772,55.95737 -14.56948,21.10134 -38.462688,36.7204 -43.941013,39.28607 0,0 27.308773,-10.92142 60.141653,-7.6941 27.27305,2.68158 23.27007,9.97292 47.08744,9.09435 22.14471,-0.81696 37.53007,-31.59333 39.97772,-43.48424 2.44765,-11.89072 3.61272,-12.93987 5.82816,-12.70636 2.21398,0.23399 2.68116,3.49875 1.51463,12.12459 -1.16504,8.62565 -4.65884,24.24754 -5.94274,25.99605 z"
         style="fill:#1dcbbc;fill-opacity:1;fill-rule:nonzero;stroke:none;stroke-width:2.15388" />
      <path
         inkscape:connector-curvature="0"
         id="path65"
         d="m 479.58514,249.8868 c 0,0 -7.86726,-26.63684 -28.26361,-19.06029 0,0 -21.50411,1.63261 -35.49054,46.63126 -13.98639,44.99928 4.42945,70.52853 24.82579,70.87833 18.76569,-0.3499 53.6141,-29.14411 53.6141,-29.14411 l 1.2827,8.74322 c 0,0 -13.8703,14.68858 -34.73257,27.51301 0,0 -42.42625,13.87317 -58.74285,-9.44304 -16.3179,-23.31595 -11.54014,-67.38196 17.2494,-98.50762 18.72779,-20.24887 38.43062,-37.2026 51.74979,-39.69447 7.15691,-1.33733 12.93467,5.43731 14.6858,9.26787 5.01121,10.95768 5.71051,25.70526 5.71051,25.70526 z"
         style="fill:#1dcbbc;fill-opacity:1;fill-rule:nonzero;stroke:none;stroke-width:2.15388" />
      <path
         inkscape:connector-curvature="0"
         id="path67"
         d="m 598.12224,343.84913 c 0,0 -7.9987,7.01755 -18.06769,7.45952 -13.28553,0.58329 -28.32239,-9.67672 -31.00221,-34.62378 0,0 -5.55252,-50.78932 24.0119,-79.62076 14.10397,-13.75554 28.55457,-5.12968 29.25393,-4.54638 0,0 20.86357,8.85934 21.21184,39.28546 0.3652,31.8227 0,60.9722 -25.40777,72.04594 z m 43.35642,-127.18685 c -16.43381,-11.8908 -42.30876,-8.15989 -70.39781,7.92773 0,0 -38.22888,25.88009 -43.12412,66.44839 -4.89526,40.56877 12.60318,65.57789 41.60962,68.43152 21.3279,2.09852 25.52509,0.81696 25.52509,0.81696 0,0 40.79283,-26.11403 53.38054,-65.28387 12.58783,-39.17001 9.44087,-66.44995 -6.99332,-78.34073 z"
         style="fill:#1dcbbc;fill-opacity:1;fill-rule:nonzero;stroke:none;stroke-width:2.15388" />
      <path
         inkscape:connector-curvature="0"
         id="path69"
         d="m 294.32531,258.97943 c 7.10905,-17.95326 15.02134,-23.90547 20.6886,-27.16236 5.47713,-3.14747 9.73168,0.6408 9.73168,0.6408 10.60592,2.44808 14.62701,18.94422 7.86747,33.7498 -6.75972,14.80618 -33.33386,24.01529 -33.33386,24.01529 -2.91334,2.03975 -12.7053,6.76103 -12.7053,6.76103 0,0 0.64053,-20.05067 7.75141,-38.00451 z m 19.17251,89.29937 c -19.93072,3.96469 -23.81049,-11.17647 -25.99107,-17.72056 -2.27275,-6.81986 -2.73845,-18.47858 -1.63221,-22.55913 0,0 50.7021,-27.80076 70.22443,-47.79565 15.37525,-15.74697 16.84095,-31.59261 6.93445,-43.83328 -9.90656,-12.24055 -34.14914,-7.6941 -39.62777,-5.24597 0,0 -27.04127,16.67092 -41.84309,41.3852 -14.80315,24.71339 -20.39777,65.74798 -9.79042,84.86715 10.60586,19.11949 23.195,29.32051 44.29072,27.1061 0,0 45.51323,-33.39997 49.18447,-37.42192 l -2.44743,-7.34426 c 0,0 -29.37158,24.5979 -49.30208,28.56232 z"
         style="fill:#1dcbbc;fill-opacity:1;fill-rule:nonzero;stroke:none;stroke-width:2.15388" />
      <path
         inkscape:connector-curvature="0"
         id="path71"
         d="m 719.22105,299.43208 c 0,-0.3499 8.74145,-36.83777 -4.31206,-55.72432 -13.05335,-18.8854 -38.46113,-4.31293 -45.22217,2.33203 l 0.23236,-3.03138 c 0,0 27.39084,-28.2108 48.8364,-37.65353 21.44523,-9.44271 24.82705,-4.78015 24.01038,5.36203 -0.8167,10.14231 -7.46045,30.42669 -7.46045,30.42669 0,0 41.95366,-44.09607 69.2328,-33.69037 13.75277,5.24596 12.23815,38.58656 12.23815,38.58656 0,0 -2.79722,35.78822 -13.28708,59.10394 -10.48979,23.31593 -29.08193,61.20766 -70.5154,55.84126 -26.10696,-3.38117 -25.9909,-16.90453 -25.64134,-18.41954 0.3499,-1.51506 3.031,-12.35699 3.031,-12.35699 0,0 18.99634,12.94022 31.46797,9.44298 12.47176,-3.49723 17.13345,-8.85976 27.97281,-27.86281 0,0 24.47907,-43.24899 21.5642,-57.93779 -2.91461,-14.68945 -16.55152,-15.73862 -37.99675,-6.87797 -21.44534,8.86036 -24.24415,14.80442 -24.82739,19.23476 z"
         style="fill:#1dcbbc;fill-opacity:1;fill-rule:nonzero;stroke:none;stroke-width:2.15388" />
      <path
         inkscape:connector-curvature="0"
         id="path73"
         d="m 848.82847,344.43088 c 0,0 12.70397,26.22973 41.37613,25.53039 0,0 -14.45212,7.34578 -39.9774,4.31424 l -8.50795,5.82795 3.72878,-35.55502 z"
         style="fill:#109186;fill-rule:nonzero;stroke:none;stroke-width:2.15388" />
      <path
         inkscape:connector-curvature="0"
         id="path75"
         d="m 845.33151,336.15289 c 0,0 -8.50929,-24.48121 -0.81667,-51.0607 7.69256,-26.57961 22.61186,-45.46463 23.66081,-46.62996 0,0 -38.46267,27.27864 -45.57201,71.46074 -6.92046,43.00998 10.83811,54.67407 12.82003,55.72342 l 5.47846,-29.14391 z"
         style="fill:#0f786f;fill-opacity:1;fill-rule:nonzero;stroke:none;stroke-width:2.15388" />
      <path
         inkscape:connector-curvature="0"
         id="path77"
         d="m 847.89563,344.31461 c 0,0 4.54704,13.87168 22.61197,20.75024 12.81985,4.43032 19.697,4.89619 19.697,4.89619 0,0 -16.31655,7.46191 -39.9774,4.31424 l -8.50795,5.82795 3.72878,-35.55499 z"
         style="fill:#0f786f;fill-opacity:1;fill-rule:nonzero;stroke:none;stroke-width:2.15388" />
      <path
         inkscape:connector-curvature="0"
         id="path79"
         d="m 948.13076,305.25964 c 0,0 0.81423,-48.49502 -14.45338,-66.33219 -15.26762,-17.83626 -36.72837,-9.92226 -36.72837,-9.92226 0,0 21.34469,-4.41666 26.35595,12.02065 5.01141,16.43813 7.69256,42.66807 7.69256,42.66807 l -6.52751,0.69936 19.58115,23.31446 z"
         style="fill:#0f786f;fill-opacity:1;fill-rule:nonzero;stroke:none;stroke-width:2.15388" />
      <path
         inkscape:connector-curvature="0"
         id="path81"
         d="m 1039.9765,185.88603 c 0,0 -25.5252,49.07978 -24.0104,110.74818 1.6322,66.44929 18.4144,60.38763 47.4362,51.64311 0,0 -32.5184,22.73248 -48.6027,25.53035 -16.08438,2.79767 -26.92243,-18.18609 -20.86212,-56.77301 6.75962,-36.25584 16.31652,-63.53494 16.31652,-63.53494 l -16.89972,-1.86478 8.97502,-17.36974 13.9864,-1.04925 16.4341,-44.2998 z"
         style="fill:#0f786f;fill-opacity:1;fill-rule:nonzero;stroke:none;stroke-width:2.15388" />
    </g>
  </g>
</svg>
