<?xml version="1.0" encoding="UTF-8"?>
<!-- Generator: Adobe Illustrator 24.3.0, SVG Export Plug-In . SVG Version: 6.00 Build 0)  -->
<svg version="1.1" xmlns="http://www.w3.org/2000/svg" xmlns:xlink="http://www.w3.org/1999/xlink" x="0px" y="0px" viewBox="0 0 588.5 146.6" style="enable-background:new 0 0 588.5 146.6;" xml:space="preserve">
<style type="text/css">
	.st0{fill:#FFFFFF;}
	.st1{fill:#86BC25;}
</style>
<g id="Calque_1">
</g>
<g id="Calque_2">
	<path class="st1" d="M103.3,54h0.9l0.9,0.9L103.3,54z M117,87.4c-1.9-0.1-1.8-3.8-4-1.8c0.2-1.1-2.4-1.6-0.9-2.7   c2,1.6,1.3-1,2.7-1.3c-1.2-0.4-2.6-0.4-3.5-1.3l0.9-0.9c-1.8,0.3-3.2-0.3-4.4-1.3l0.9-0.9l-0.9-0.9l0.4-0.4   c1.3-0.3,2.3,0.3,3.1,1.3l0.4-0.4l-0.4-0.4c-0.1-0.4,0.2-0.6,0.4-0.9c0.4-0.1,0.6,0.2,0.9,0.4c0.5-0.8,1.3-1,2.2-0.9l-0.9-3.1   c0.5-1.1,1.2,0.1,1.8,0c-0.6-2.4-2.2-2.4-4-3.6c0.5-0.5,1.2-0.9,0.9-1.8c-0.6-0.1-1.3,1.1-1.8,0l-0.4,0.4c-1.1,0.5-1.5-0.9-2.2-1.3   c0.1-0.6-0.4-1.5,0.4-1.8l0.9,0.9c0.1-0.4-0.2-0.6-0.4-0.9l0.9-0.9c0.5,1.1,1.6,0.6,2.2,1.3c-0.4-2.9-2.4-2.2-4.4-2.7   c-0.4-0.8-1.8-2.5,0-3.1c0.6,0.4,1,1.4,1.8,1.3v-0.9c1.6-1.6,2.6,1,4,1.3c0.2-0.6-0.6-0.9-0.9-1.3c0.5-0.5,0.9-1.2,1.8-0.9   c-0.9-0.6-2.4-0.5-2.7-1.8c0.3-0.6,0.8-0.4,1.3-0.4v-0.9c-1.4,0.6-1.8-0.9-2.2-1.3c-0.3,0.9-1.1,1.6-2.2,1.3   c-0.5-0.3-0.4-0.8-0.4-1.3c-1.2,1.7-2.7,0.3-4,0c0.5-0.9,1.5-1,2.2-0.4c-0.3-1-1.9-2.1-0.9-3.1c0.4,0.3,0.7,1.1,1.3,0.9   c-0.3-1,0.5-1.4,0.8-2.1c-0.1,0.1-0.3,0.2-0.4,0.4c-0.7-0.7-1.5-1.4-1.8-2.2c-0.5,0-1.1-0.1-1.3,0.4l-0.4-0.4   c0-0.5-0.1-1.1,0.4-1.3c0.4,0.8,1.5,0.3,2.2,0.4c-0.6-0.3-1.4-1.7,0-2.2c0.4-0.1,0.6,0.2,0.9,0.4c0.2-0.6-0.6-0.9-0.9-1.3   c-0.1-0.9,0.1-1.7,0.9-2.2l0.4,0.4v-0.9c0.3-0.6,0.8-0.4,1.3-0.4l-1.3-1.3l1.3-0.9c-0.5-0.3-0.4-0.8-0.4-1.3   c-1.3-0.2-3.4,0.6-3.5-1.3l-1.3,1.3c-0.4,0.1-0.6-0.2-0.9-0.4c0.3,1.3-0.4,2.1-0.9,3.1c-1.2,0.3-0.7-1.9-1.8-0.4l0.4,0.4l-0.4,0.4   c-1,0.5-1.3-0.8-1.8-0.9l-1.3,1.8c-2-0.8,0-2.1,0-3.1c-0.4,0.1-0.6-0.2-0.9-0.4c0.3-0.6,0.8-0.4,1.3-0.4c-0.1-0.9-1.6-1.8-0.4-2.7   c0.3,0.2,0.5,0.6,0.9,0.4l-0.9-0.9c0.3-0.6,0.8-0.4,1.3-0.4c-0.9-1.1-3.3,0.4-3.5-1.3c-1.9,0.5,0.1,2.6-1.8,3.1   c-0.9-0.6,0-2.8-1.8-2.2c0,0.5,0.1,1.1-0.4,1.3L90,32.7c-1.6,0.9-2.4,4.3-4.9,2.7l1.3-1.3l-1.3-0.9c0.9-1,2.7,0.1,3.5-0.9   c-0.5-0.3-1.3-1.3-1.8-0.4c-0.6-0.1-1.5,0.4-1.8-0.4c-0.1-0.4,0.2-0.6,0.4-0.9c0.2-0.5,1.5-1.3,2.1-0.3c-0.4-1.2,2.2-0.7,0.6-2   c1.5-0.8-1-1.5,0.4-2.2c0.3,0.2,0.5,0.6,0.9,0.4V26c-1-0.9-3.4-0.4-3.1,1.3c-1.4,0.2-1.9-2.1-3.5-1.3l0.4,0.4   c-1.2,0.1-1.2,3.7-3.1,1.8l0.4-0.4l-0.9-0.9l0.4-0.4c-1-2.3-2.7-0.7-4.4-1.3c0.2,0.6-0.6,0.9-0.9,1.3c-2.4-0.7-1.3-2.7-2.7-4   c-2.5,0.3-3.9-0.8-5.8,0.9l0.4,0.4c-1.3,1-2.7-1.9-4-0.9l1.3,0.9l-0.4,0.4c0.1,0.9-0.4,2,0.4,2.7c-2.2,1.9-1.8-2.3-4-1.8l0.4-0.4   c0.1-0.4-0.2-0.6-0.4-0.9l-0.9,0.9c-0.3-0.8-1.2-0.3-1.8-0.4c-0.2,0.6,0.6,0.9,0.9,1.3l-0.9,0.9l2.7,1.8l-0.4,0.4   c-0.5,0-1.1,0.1-1.3-0.4L58,28.7c0.2,0.3,0.6,0.5,0.4,0.9c-0.3,0.2-0.5,0.6-0.9,0.4l0.9,0.9L58,31.3c-0.8,0.3-1.2-0.4-1.8-0.9   c0.8-0.3,0.3-1.2,0.4-1.8c-0.5,0-1.1,0.1-1.3-0.4c-0.5-1,0.8-1.3,0.9-1.8c-0.4,0.1-0.6-0.2-0.9-0.4l-0.4,0.4   c-0.4,0.1-0.6-0.2-0.9-0.4c0.9-0.5-0.3-2.4,1.3-2.2c-0.7-0.3-2.4-1.2-3.1-0.9c-0.5,0-1.1,0.1-1.3-0.4c0.5,1.1-0.9,1.5-1.3,2.2   l0.9,0.9c-0.1,0.8,0.4,1.8-0.4,2.2c-0.8,0-1.2-0.9-1.8-1.3c0.1,0.9,1.6,1.8,0.4,2.7c-0.3-0.6-0.8-0.4-1.3-0.4   c-0.1,0.4,0.2,0.6,0.4,0.9c-2.5,1.6-3-1.5-4.9-2.7c-0.3-1.2,1.9-0.7,0.4-1.8c-0.9,0.1-1.8,1.6-2.7,0.4c-0.1-0.4,0.2-0.6,0.4-0.9   c-0.5-0.6-1.2-0.7-1.8-0.9l0.9,2.2c-0.3,0.8-1.2,0.3-1.8,0.4l0.9,0.9c-0.8,1.2-1.6-0.4-2.7,0l1.3,1.3c0.4,0.4,1.5,1.2,0.4,1.8   c-0.2,1.1,2.4,1.6,0.9,2.7c-0.6,0.2-0.9-0.6-1.3-0.9c-0.1,0.8,0.4,1.8-0.4,2.2c-2.3-1.5-2.6-2.6-4.9-4l0.4,0.4   c-1.2,0.7-2.7-1-3.5,0.4c0.8,0.1,1.5,1.6,2.2,0.4l0.9,0.9c0.1,1.2-1.4,0.7-1.8,1.8c0.8,1.3,4.1,0.8,2.2,3.1   c-0.6-0.1-1.5,0.4-1.8-0.4c0,1.3,1.9,1.3,2.7,2.7c-0.9,1.2-1.8-0.3-2.7-0.4l1.3,1.3l-0.9,0.9l-0.4-0.4c-1.9,1.6-0.6-1.6-2.2-1.8   c-0.4-0.1-0.6,0.2-0.9,0.4c-0.6-0.5-0.7-1.2-0.9-1.8c-1.3,0.6-2.1-1.2-3.1,0c0.6,0.3,0.4,0.8,0.4,1.3c-0.3,0.5-0.8,0.4-1.3,0.4   c0.5,1.4,2,0.4,2.7,1.3c0.1,1.6-1.7,0.3-2.2,1.3c0.5,0,1.1-0.1,1.3,0.4c0,0.8-0.9,1.2-1.3,1.8c-1.2-0.9-2-2.7-3.5-2.7v0.4   c-0.8,0.8-2.1,0.3-3.1,0.4c0,0.5-0.1,1.1,0.4,1.3l0.4-0.4c0.3,0.4,1.1,0.7,0.9,1.3c0.8,0.1,1.8-0.4,2.2,0.4c0.2,0.7,0.9,1.6,0,2.2   c-0.3-0.2-0.5-0.6-0.9-0.4v1.3c-0.9,1.2-1.8-0.3-2.7-0.4c-0.1,0.4,0.2,0.6,0.4,0.9l-1.3,1.3c0.8,0.1,1.8-0.4,2.2,0.4   c0.6,1.1-1,1.3-0.9,2.2c0.4-0.1,0.6,0.2,0.9,0.4l0.4-0.4c0.6-0.2,0.9,0.6,1.3,0.9l1.3-1.3l1.3,1.3l0.9-0.9c0.4-0.1,0.6,0.2,0.9,0.4   L24.8,54c-0.1,0.4,0.2,0.6,0.4,0.9l-0.9,0.9c-0.8,0.1-1.5-0.2-2.2-0.4c0,0.5-0.1,1.1,0.4,1.3c-0.3,0.8-1.2,0.3-1.8,0.4V58l0.4-0.4   c0.5,0,1.1-0.1,1.3,0.4l-0.4,0.4c-0.1,0.4,0.2,0.6,0.4,0.9l1.3-1.3c1.3,1.2,2.3-0.9,3.5,0.4l-0.9,0.9l3.1,1.8l-0.9,0.9l0.9,0.9   c-1.4,1.5-2.2-2.4-3.5-0.9c-0.8-0.3-1.2-1.2-2.2-0.9l1.3,1.3c0.1,1.7-1.9,0.2-2.2,1.8l-0.9-2.2c-1.3,1.6-2.4-1.2-3.5,0l0.9,0.9   c-0.5,1.1-1.2-0.1-1.8,0c-0.1,0.6,0.4,1.5-0.4,1.8c1.4-0.1,2.7,0,3.5,1.3l-0.4,0.4c-0.6,0.2-0.9-0.6-1.3-0.9c0,1.7-2.2,0.7-2.2,2.2   L15.9,67c0,0.5-0.1,1.1,0.4,1.3L15,69.6c-0.1,0.4,0.2,0.6,0.4,0.9c1.8-1.9,3.5,1.9,4.9-0.4c1.5,0.8-1,1.5,0.4,2.2l0.4-0.4   c0.8-0.6,2.6-1,3.1,0.4l-0.9,0.9c-0.1,0.4,0.2,0.6,0.4,0.9L23,75c-0.7-0.7-1.4-1.5-2.2-1.8l0.4,1.3c-0.9,1.1-2-0.1-3.1,0   c-0.2,1,1,0.6,1.3,1.3l-3.1,1.3l2.2,2.7c-1.6,2.8-3-1.7-4.9,0.4c0.5,0.7,2.3,0.3,1.8,1.8c-1.3,1.2-2.7-0.3-4-0.4l0.4,0.4l-0.4,0.4   c-0.2,1,1,0.6,1.3,1.3l-2.2,0.9c-0.2,0.6,1.9,2.2,0.9,1.3l0.4-0.4l1.3,1.3c-0.5-1.1,0.9-1.5,1.3-2.2l0.9,2.2   c0.4-1.6,2.1-1.8,3.1-2.7c0.9,2.7,3.1,0.3,4.9,1.8c-0.1,0.6,0.4,1.5-0.4,1.8L22.1,87c-1,1.2-2.1,0.1-3.1,0.9   c0.8-0.3,1.2,0.4,1.8,0.9c0.1,0.4-0.2,0.6-0.4,0.9c-0.8,0.2-3.6-0.7-4,0.9c0.9-1.2,1.8,0.3,2.7,0.4c0,0.9-1.1,1.3-1.8,1.8   c0.4-0.1,0.6,0.2,0.9,0.4c0.6-0.2,0.9,0.6,1.3,0.9l1.3-1.8c0.4-0.1,0.6,0.2,0.9,0.4c0.1,0.4-0.2,0.6-0.4,0.9l0.4,0.4   c0.9,0.1,1.7-0.1,2.2-0.9c0.5,0.5,1.2,0.9,0.9,1.8c-0.3,0.5-0.8,0.4-1.3,0.4c-0.4,0.9,0.6,1.6,0.9,1.8c0.8-1.3,1.2,0.7,2.2,0   c-0.6-2.2,2.4-0.6,2.2-2.7c0.4,0.9,2,0,1.8,1.3c1.1-0.2,2.6-0.9,3.5,0c0.5,1-0.8,1.3-0.9,1.8L35,99c-0.3,0.2-0.5,0.6-0.9,0.4   l0.9,0.9c-0.3,0.2-0.5,0.6-0.9,0.4c-0.5-0.5-1.2-0.9-0.9-1.8h-0.9c0.1,0.4-0.2,0.6-0.4,0.9c1,0.1,1.9,1.5,0.9,2.2   c0.7,1.9,2.7,0.6,3.5,2.2l-0.4,0.4c1.6-0.1,1-1.8,1.8-2.7c0.4-0.1,0.6,0.2,0.9,0.4c0-0.5-0.1-1.1,0.4-1.3c0.5,0.8,1.3,1,2.2,0.9   c0.5-0.7,0.1-1.7,0.9-2.2c1.1-0.5,1.5,0.9,2.2,1.3v-1.8c0.3-0.8,1.2-0.3,1.8-0.4l-0.4-0.4c-0.2-0.6,0.6-0.9,0.9-1.3   c0.3,0.2,0.5,0.6,0.9,0.4c0-0.5-0.1-1.1,0.4-1.3c0.6-0.2,0.9,0.6,1.3,0.9l-0.9,0.9c0.5,1.1,1.2-0.1,1.8,0c0.2,0.3,0.6,0.5,0.4,0.9   c-0.3,0.2-0.5,0.6-0.9,0.4c0.2,0.3,0.6,0.5,0.4,0.9h0.9l-0.4-0.4c0.3-0.6,0.8-0.4,1.3-0.4L51.4,99l0.4-0.4c0.9,0,1.3,1.1,1.8,1.8   l1.3-1.8l-0.4-0.4c0.8-1.3,1.2,0.7,2.2,0c0-0.1,0-0.2,0-0.3c1.4,2,3.6,5.6,3.9,10.3c0,0,0,0.1,0,0.3c0.2,7.8-0.7,16.7-5.2,19.8   c-0.6,0.2-1.2,0.3-1.9,0.3h23c0,0-6.9-2.9-5.3-19.4c0,0,0.5-4.1,3.2-8.6c0.9-0.4,1.7-0.4,2.2,1.6l0.4-0.4l-0.4-0.4l2.2-2.2   c0.4,0.3,0.7,1.1,1.3,0.9c-0.4-1.2-1.8-2.1-2.7-3.1l1.5-1.7c0.5,0.1,0.8,0.4,1.2,0.8l0.9-0.9l-0.4-0.4l0.4-0.4   c0.9,0.4,2,0.8,2.7,1.8c-0.8,3.1,2.9,1.1,3.5,3.6c1.6-1.4,3.3,0.5,4,1.8l1.8-1.3c0.8,0.4,0.7,1.2,1.3,1.8c0.5,0,1.1-0.1,1.3,0.4   c0.4-1.2-0.6-1.9-1.3-2.7l1.8-1.3l-1.3-1.3c-0.1-0.4,0.2-0.6,0.4-0.9c1.6,0.9,4.9-0.2,4.9,2.7l1.3-1.3c0.2,0.3,0.6,0.5,0.4,0.9h1.3   c-0.8-1-1.5-2.6-0.9-3.6c0.6-0.2,0.9,0.6,1.3,0.9c1.4-0.1,3.7,1.3,4.9,2.2h0.9c0.3-0.8-0.4-1.2-0.9-1.8l0.9-0.9   c1.8-0.8,2.2,1.6,3.5,1.8c-0.3-1-1.2-2.4-0.9-3.1c0.4-0.1,0.6,0.2,0.9,0.4c0.8-1.5,1.5,1,2.2-0.4c-0.4-0.8-1.2-0.7-1.8-1.3l1.3-0.9   c-1.8-0.2-3.2-1.2-4.4-2.7l0.4-0.4c1.5,2.2,3.3-0.7,4.9,1.3l-0.4-1.3C115.7,87.7,116.4,87.7,117,87.4"/>
	<g>
		<path d="M148.3,57.6c0.8-5.4,4.1-9.1,9.1-9.1c4.7,0,8.1,4.1,8.4,9.1H148.3z M157.4,38.7c-12.6,0-23.2,9.8-23.2,23.4    c0,14.9,9.5,23.6,23.5,23.6c9.6,0,18.8-4.5,21.3-14.7h-13.1c-1.3,3.2-4.6,4.9-8,4.9c-6,0-9.3-4-9.6-10.1h31.5    C180.5,50.7,172.8,38.7,157.4,38.7"/>
		<polygon points="156.4,22.5 148.4,35.2 158.3,35.2 171.3,22.5   "/>
		<path d="M204.6,74.6c-6.2,0-8.3-6.2-8.3-11.9c0-6.1,2.2-12.8,8.6-12.8c6.7,0,8.4,6.8,8.4,12.7C213.2,71.8,208.4,74.6,204.6,74.6     M226.8,99.3V40h-13.4v5.1h-0.2c-2.7-4.2-6.9-6.4-11.8-6.4c-13.5,0-19.2,12-19.2,24.5c0,11.6,6,22.5,18.1,22.5    c5.3,0,9.3-2.1,12.2-6.2h0.2v19.8H226.8z"/>
		<path d="M260.8,63.8c0,7.9-4.6,9.9-7.7,9.9c-4.5,0-6.9-2.1-6.9-8V40h-14v26.7c0,11.6,3.5,19,15.9,19c5,0,10.4-2.8,13.1-7.4h0.2    v6.1h13.6V40h-14.1V63.8z"/>
		<rect x="280.7" y="23.3" width="14.1" height="11.1"/>
		<rect x="280.7" y="40" width="14.1" height="44.4"/>
		<path d="M322.6,74.6c-6.4,0-8.5-5-8.5-12.8c0-9.2,4.8-11.9,8.6-11.9c6.2,0,8.3,6.2,8.3,11.9C331,67.8,328.9,74.6,322.6,74.6     M345.1,63.2c0-12.5-5.7-24.5-19.2-24.5c-5,0-9.1,2.2-11.8,6.4h-0.2V40h-13.4v59.3h14.1V79.6h0.2c2.9,4,7,6.1,12.2,6.1    C339.1,85.7,345.1,74.7,345.1,63.2"/>
		<polygon points="355,23.3 345.7,41.6 356.7,41.8 367.9,23.3   "/>
		<path d="M369.3,83.4c0,3.2-1.6,4-4.4,4.1H362v11.8h7.1c9.9,0,14.2-3.7,14.2-14.9V40h-14.1V83.4z"/>
		<rect x="369.3" y="23.3" width="14.1" height="11.1"/>
		<path d="M406.8,76.7c-3.2,0-5.9-1.4-5.9-5c0-3.5,2.6-4.9,5.8-5.6c3-0.9,6.7-1.1,8.7-2.4C415.7,72.8,413.5,76.7,406.8,76.7     M428.9,53.6c0-12.6-9.8-14.9-20-14.9c-4.9,0-9.8,0.9-13.6,3.1c-3.8,2.3-6.5,6.1-6.7,11.9h13.1c0.7-3.8,3.1-5.6,7-5.6    c2.9,0,6.8,1.3,6.8,4.6c0,2.7-1.3,3.6-3.7,4.1c-9.7,2.1-25,0.9-25,15.4c0,9.2,6.5,13.4,14.6,13.4c5.1,0,10.5-1.5,14.1-5.5    c0.2,1.5,0.3,2.8,0.8,4.2h14.1c-1.6-3.5-1.6-7.6-1.6-11.4V53.6z"/>
		<path d="M484.2,74.6c-6.5,0-8.6-6.8-8.6-12.8c0-5.6,2.1-11.9,8.6-11.9c6.1,0,8.3,5.9,8.3,12.3C492.6,67.8,491.1,74.6,484.2,74.6     M492.1,44.8h-0.2c-2.9-4-7-6.1-12.2-6.1c-7.2,0-12.3,3.9-15.2,9.5v-8.7c-1.1-0.3-2.2-0.3-3.3-0.3c-6,0-10.8,3-12.9,8.6h-0.2V40    h-13.6v44.4h14v-22c0-5.6,3.6-10.5,10.6-10.5c1.3,0,2.5,0.2,3.7,0.4c-0.8,2.8-1.3,5.8-1.3,8.9c0,12.5,5.7,24.5,19.2,24.5    c5,0,9.1-2.2,11.8-6.4h0.2v5.1h13.4V23.3h-14.1V44.8z"/>
		<path d="M484.2,74.6c-6.5,0-8.6-6.8-8.6-12.8c0-5.6,2.1-11.9,8.6-11.9c6.1,0,8.3,5.9,8.3,12.3C492.6,67.8,491.1,74.6,484.2,74.6     M492.1,44.8h-0.2c-2.9-4-7-6.1-12.2-6.1c-7.2,0-12.3,3.9-15.2,9.5v-8.7c-1.1-0.3-2.2-0.3-3.3-0.3c-6,0-10.8,3-12.9,8.6h-0.2V40    h-13.6v44.4h14v-22c0-5.6,3.6-10.5,10.6-10.5c1.3,0,2.5,0.2,3.7,0.4c-0.8,2.8-1.3,5.8-1.3,8.9c0,12.5,5.7,24.5,19.2,24.5    c5,0,9.1-2.2,11.8-6.4h0.2v5.1h13.4V23.3h-14.1V44.8z"/>
		<rect x="512.1" y="23.3" width="14" height="11.1"/>
		<rect x="512.1" y="40" width="14" height="44.4"/>
		<path d="M560.6,62.9v21.5h14.1V55.9c0-6.4-1.2-17.2-15.5-17.2c-5.1,0-10.9,2.8-13.5,7.4h-0.2V40h-13.6v44.4H546V60.2    c0-4.9,2.3-9.5,7.6-9.5C561.3,50.7,560.6,56.8,560.6,62.9"/>
		<g>
			<path d="M302.2,114.6h1.6v10.6h6.1v1.4h-7.7V114.6z"/>
			<path d="M321.3,114.6h1.8l4.4,12.1h-1.8l-1.3-3.6h-4.7l-1.3,3.6h-1.7L321.3,114.6z M324,121.8l-1.9-5.3l-1.9,5.3H324z"/>
			<path d="M346.1,114.6l3.5,10.3l3.4-10.3h1.8l-4.4,12.1h-1.7l-4.4-12.1H346.1z"/>
			<path d="M363,114.6h1.6v12.1H363V114.6z"/>
			<path d="M373.6,114.6h8.8v1.5h-7.2v3.7h6.6v1.4h-6.6v4.1h7.3v1.4h-8.9V114.6z"/>
			<path d="M410.3,115.5c0.8,0.8,1.3,1.7,1.4,2.7h-1.6c-0.2-0.8-0.5-1.4-1.1-1.8c-0.5-0.5-1.3-0.7-2.2-0.7c-1.2,0-2.1,0.4-2.8,1.3     c-0.7,0.8-1.1,2.1-1.1,3.8c0,1.4,0.3,2.6,1,3.4c0.6,0.9,1.6,1.3,2.9,1.3c1.2,0,2.1-0.5,2.7-1.4c0.3-0.5,0.6-1.1,0.7-1.9h1.6     c-0.1,1.3-0.6,2.3-1.4,3.2c-0.9,1-2.2,1.6-3.8,1.6c-1.4,0-2.5-0.4-3.5-1.3c-1.2-1.1-1.9-2.9-1.9-5.2c0-1.8,0.5-3.2,1.4-4.4     c1-1.2,2.4-1.9,4.2-1.9C408.3,114.3,409.5,114.7,410.3,115.5z"/>
			<path d="M430.1,116.4c0.8,1.1,1.2,2.4,1.2,4.1c0,1.8-0.5,3.3-1.4,4.5c-1.1,1.4-2.6,2.1-4.6,2.1c-1.9,0-3.3-0.6-4.4-1.8     c-0.9-1.2-1.4-2.7-1.4-4.5c0-1.6,0.4-3,1.2-4.2c1-1.5,2.6-2.2,4.6-2.2C427.5,114.3,429,115,430.1,116.4z M428.6,124     c0.6-1,1-2.2,1-3.6c0-1.4-0.4-2.6-1.1-3.4c-0.7-0.9-1.8-1.3-3-1.3c-1.2,0-2.3,0.4-3.1,1.3c-0.8,0.9-1.2,2.1-1.2,3.8     c0,1.3,0.3,2.5,1,3.4c0.7,0.9,1.8,1.4,3.3,1.4C426.9,125.6,428,125.1,428.6,124z M426.3,111l1.7,2.4h-1.3l-1.1-1.6l-1.1,1.6h-1.3     l1.7-2.4H426.3z"/>
			<path d="M448.2,114.6v1.4h-4.1v10.6h-1.6v-10.6h-4.1v-1.4H448.2z"/>
			<path d="M456.1,114.6h8.8v1.5h-7.2v3.7h6.6v1.4h-6.6v4.1h7.3v1.4h-8.9V114.6z M462.4,111.3l-2.2,2.4H459l1.5-2.4H462.4z"/>
			<path d="M490.1,123.1c0,1-0.2,1.8-0.5,2.4c-0.6,1-1.6,1.5-3.2,1.5c-0.9,0-1.7-0.2-2.3-0.7c-0.6-0.5-1-1.4-1-2.6v-0.9h1.5v0.9     c0,0.7,0.1,1.2,0.4,1.5c0.3,0.3,0.7,0.5,1.4,0.5c0.9,0,1.4-0.3,1.7-0.9c0.2-0.4,0.2-1.1,0.2-2.1v-8h1.6V123.1z"/>
			<path d="M502.3,114.6h1.8l4.4,12.1h-1.8l-1.3-3.6h-4.7l-1.3,3.6h-1.7L502.3,114.6z M505,121.8l-1.9-5.3l-1.9,5.3H505z"/>
			<path d="M516.4,114.6h5.5c0.9,0,1.6,0.1,2.2,0.4c1.1,0.5,1.7,1.5,1.7,2.8c0,0.7-0.1,1.3-0.4,1.8c-0.3,0.5-0.7,0.8-1.3,1.1     c0.5,0.2,0.8,0.4,1.1,0.8c0.2,0.3,0.4,0.8,0.4,1.5l0.1,1.6c0,0.5,0.1,0.8,0.1,1c0.1,0.4,0.3,0.6,0.5,0.7v0.3h-2     c-0.1-0.1-0.1-0.2-0.1-0.4c0-0.2-0.1-0.5-0.1-1l-0.1-2c0-0.8-0.3-1.3-0.9-1.6c-0.3-0.1-0.8-0.2-1.4-0.2h-3.6v5.2h-1.6V114.6z      M521.7,120.2c0.7,0,1.3-0.2,1.8-0.5c0.4-0.3,0.7-0.9,0.7-1.7c0-0.9-0.3-1.4-0.9-1.8c-0.3-0.2-0.8-0.2-1.3-0.2h-3.9v4.1H521.7z"/>
			<path d="M534.7,114.6h4.8c1.6,0,2.9,0.6,3.8,1.8c0.8,1.1,1.2,2.4,1.2,4.1c0,1.3-0.2,2.4-0.7,3.5c-0.8,1.8-2.3,2.7-4.3,2.7h-4.8     V114.6z M539.2,125.3c0.5,0,1-0.1,1.3-0.2c0.6-0.2,1.1-0.6,1.5-1.2c0.3-0.5,0.5-1.1,0.7-1.9c0.1-0.5,0.1-0.9,0.1-1.3     c0-1.5-0.3-2.7-0.9-3.5c-0.6-0.8-1.5-1.2-2.8-1.2h-2.8v9.3H539.2z"/>
			<path d="M553.3,114.6h1.6v12.1h-1.6V114.6z"/>
			<path d="M563.8,114.6h1.9l6,9.7v-9.7h1.6v12.1h-1.8l-6.1-9.7v9.7h-1.6V114.6z"/>
		</g>
	</g>
</g>
<script xmlns=""/></svg>