<svg xmlns="http://www.w3.org/2000/svg" width="307" height="26" viewBox="0 0 307 26" fill="none"><path d="M126.412 5.34716C126.412 5.92328 126.69 6.49939 127.211 7.00817C127.975 7.75388 128.981 8.29757 130.196 8.90611C131.274 9.4498 132.418 10.0933 133.738 11.0759C133.46 11.4824 133.253 11.9588 133.148 12.4675C131.516 12.2306 130.265 11.8914 129.086 11.5173C127.765 11.1108 126.69 10.804 125.613 10.804C124.119 10.804 123.251 11.652 123.251 13.0087C123.251 14.3655 124.119 15.2134 125.613 15.2134C126.69 15.2134 127.765 14.9092 129.086 14.5002C130.265 14.1261 131.516 13.8218 133.148 13.5849C133.217 14.0936 133.426 14.5675 133.738 14.9765C132.385 15.9267 131.274 16.5702 130.196 17.1139C128.981 17.7249 127.975 18.2661 127.211 19.0118C126.69 19.5206 126.412 20.0967 126.412 20.6728C126.412 21.2165 126.655 21.7253 127.142 22.1992C127.628 22.673 128.148 22.9124 128.705 22.9124C129.295 22.9124 129.885 22.6406 130.406 22.1318C131.169 21.3861 131.726 20.4035 132.349 19.2163C132.905 18.1639 133.564 17.079 134.537 15.7571C134.953 16.0614 135.441 16.231 135.962 16.3333C135.719 17.9269 135.405 19.149 135.025 20.3012C134.609 21.5906 134.295 22.6406 134.295 23.6931C134.295 25.1521 135.163 26 136.552 26C137.941 26 138.809 25.1521 138.809 23.6931C138.809 22.6406 138.497 21.5906 138.079 20.3012C137.696 19.149 137.348 17.9269 137.106 16.3333C137.662 16.231 138.112 16.029 138.531 15.7571C139.537 17.0465 140.198 18.1639 140.752 19.2163C141.378 20.4035 141.932 21.3861 142.695 22.1318C143.216 22.6406 143.806 22.9124 144.396 22.9124C144.952 22.9124 145.473 22.6755 145.959 22.1992C146.444 21.7253 146.689 21.2165 146.689 20.6728C146.689 20.0967 146.41 19.5206 145.89 19.0118C145.126 18.2661 144.12 17.7224 142.905 17.1139C141.827 16.5702 140.683 15.9267 139.363 14.9441C139.641 14.57 139.848 14.0961 139.953 13.5874C141.585 13.8243 142.836 14.131 144.015 14.5027C145.335 14.9092 146.41 15.2159 147.488 15.2159C148.982 15.2159 149.85 14.368 149.85 13.0112C149.85 11.6545 148.982 10.8065 147.488 10.8065C146.41 10.8065 145.335 11.1108 144.015 11.5198C142.836 11.8939 141.585 12.2331 139.917 12.47C139.848 11.9613 139.639 11.4874 139.327 11.0784C140.681 10.0957 141.827 9.4498 142.905 8.9086C144.12 8.29757 145.126 7.75637 145.89 7.01066C146.41 6.50189 146.689 5.92577 146.689 5.34966C146.689 4.80596 146.446 4.29718 145.959 3.82332C145.473 3.34946 144.952 3.11004 144.396 3.11004C143.806 3.11004 143.216 3.38189 142.695 3.89066C141.932 4.63637 141.375 5.61901 140.752 6.80615C140.195 7.85862 139.537 8.97594 138.531 10.3003C138.114 9.99599 137.627 9.79148 137.106 9.72414C137.348 8.09556 137.696 6.87599 138.079 5.72126C138.495 4.43186 138.809 3.38189 138.809 2.32942C138.809 0.870423 137.941 0.0224609 136.552 0.0224609C135.163 0.0224609 134.295 0.870423 134.295 2.32942C134.295 3.38189 134.606 4.43186 135.025 5.72126C135.408 6.87349 135.719 8.09555 135.962 9.68922C135.441 9.79148 134.956 9.99349 134.573 10.2653C133.567 8.97594 132.905 7.85862 132.351 6.80615C131.726 5.61901 131.172 4.63637 130.408 3.89066C129.887 3.38189 129.297 3.11004 128.708 3.11004C128.151 3.11004 127.63 3.34697 127.145 3.82332C126.66 4.29718 126.415 4.80596 126.415 5.34966L126.412 5.34716Z" fill="url(#paint0_linear_850_596)"/><path d="M20.9661 24.0522C18.8953 25.3291 15.7725 25.9676 11.5951 25.9676C9.19486 25.9676 7.12404 25.6633 5.3826 25.0548C3.63862 24.4462 2.30574 23.5958 1.38395 22.5009C0.462169 21.406 0 20.1366 0 18.6876C0 17.5703 0.278323 16.4205 0.832414 15.2384L4.75446 14.5575V14.1934C3.58755 13.8068 2.67087 13.318 2.00443 12.7269C1.33544 12.1358 0.863055 11.44 0.587286 10.6369C0.308964 9.83636 0.171079 8.88115 0.171079 7.77631C0.171079 6.16269 0.60516 4.77353 1.47077 3.60633C2.33638 2.43914 3.59777 1.54878 5.25749 0.92777C6.91466 0.309257 8.90377 0 11.2248 0C18.9668 0 22.9374 2.67607 23.1416 8.02571C23.1186 8.7764 23.0293 9.567 22.871 10.3975L19.0179 11.6071V11.9712C20.7823 12.5024 22.0666 13.2731 22.871 14.2832C23.6753 15.2957 24.0762 16.6076 24.0762 18.2212C24.0762 20.8299 23.0395 22.7728 20.9687 24.0497L20.9661 24.0522ZM5.68646 9.2777C6.10522 9.65928 6.94274 9.99348 8.19902 10.2803C9.45531 10.5671 11.3397 10.834 13.8523 11.0759C15.2107 11.1856 16.4542 11.3627 17.5879 11.6071C17.8254 10.7891 17.9454 10.0483 17.9454 9.38494C17.9122 7.63914 17.2739 6.38216 16.0355 5.61151C14.7971 4.84336 13.0607 4.45928 10.8316 4.45928C8.9293 4.45928 7.49173 4.73861 6.51888 5.29727C5.54602 5.85592 5.05832 6.68144 5.05832 7.77631C5.05832 8.39482 5.2677 8.89612 5.68646 9.2777ZM12.1032 21.7228C14.5034 21.7228 16.2397 21.4459 17.3147 20.8948C18.3897 20.3411 18.9285 19.5131 18.9285 18.4082C18.9285 17.7 18.6987 17.1612 18.2416 16.7921C17.7846 16.423 16.9317 16.1163 15.6856 15.8718C14.4396 15.6299 12.4939 15.3855 9.84598 15.1411C8.39819 14.9965 7.20319 14.8194 6.26353 14.6099C5.59454 15.7047 5.26259 16.7996 5.26259 17.892C5.26259 20.4459 7.5428 21.7228 12.1032 21.7228Z" fill="#333333"/><path d="M34.5629 25.8504C32.4794 25.8504 30.8835 25.3516 29.7753 24.349C28.6671 23.3489 28.1105 21.7552 28.1105 19.5655V8.55444H25.2251V4.22735H28.1105V0.695835L33.3909 0.164612V4.22735H38.245L37.8543 8.55444H33.3884L33.4062 18.4033C33.4062 19.0567 33.4752 19.568 33.6105 19.9371C33.7459 20.3087 33.9706 20.5755 34.2821 20.7402C34.5936 20.9048 35.0328 20.9896 35.5971 20.9896C36.3095 21.022 37.2313 20.795 38.365 20.3087L38.5846 25.167C37.0117 25.6209 35.6711 25.8479 34.5604 25.8479L34.5629 25.8504Z" fill="#333333"/><path d="M42.9256 23.521C41.2225 21.9123 40.3696 19.5331 40.3696 16.3831V4.22736H45.6654V16.1986C45.6654 18.0017 46.0944 19.2637 46.9549 19.987C47.8154 20.7102 49.0538 21.0719 50.6727 21.0719C51.7579 21.0719 52.6592 20.9422 53.3716 20.6828C54.084 20.4234 54.6407 19.9371 55.0441 19.2238C55.445 18.5105 55.6467 17.5029 55.6467 16.1986V4.22736H60.9425V16.3806C60.9425 19.5306 60.0948 21.9099 58.3968 23.5185C56.6987 25.1271 54.1249 25.9302 50.6727 25.9302C47.2204 25.9302 44.6262 25.1271 42.923 23.5185L42.9256 23.521Z" fill="#333333"/><path d="M79.4827 0.0249634V4.67628L79.973 10.6444L79.6002 10.6794C79.2606 8.27014 78.3797 6.50189 76.9625 5.38208C75.5428 4.25978 73.786 3.69863 71.6922 3.69863C69.9278 3.69863 68.4417 4.0428 67.2442 4.73364C66.0466 5.42448 65.1223 6.58669 64.4763 8.21527C63.8303 9.84885 63.5085 12.0511 63.5085 14.8244C63.5085 18.6153 64.2133 21.416 65.6228 23.2217C67.0323 25.0299 68.9882 25.9352 71.488 25.9352C73.1298 25.9352 74.5112 25.6933 75.6296 25.2069C76.748 24.7206 77.6647 23.9175 78.372 22.8002C79.0767 21.6829 79.5772 20.1865 79.8734 18.306L80.2462 18.3734L79.5542 26H84.776V0.0249634H79.4802H79.4827ZM79.4827 15.8843C79.4138 17.1688 79.1329 18.2861 78.6401 19.2438C78.1498 20.199 77.4962 20.9347 76.6893 21.446C75.8799 21.9622 74.9836 22.2191 73.998 22.2191C72.2234 22.2191 70.9237 21.628 70.1015 20.4459C69.2818 19.2662 68.8707 17.4132 68.8707 14.8917C68.8707 12.5673 69.2716 10.824 70.0759 9.64933C70.8777 8.47964 72.1978 7.89105 74.0312 7.89105C75.2441 7.89105 76.3114 8.21278 77.2408 8.84626C78.1703 9.48472 78.9159 10.4599 79.4827 11.7742V15.8843Z" fill="#333333"/><path d="M93.667 0.573621C93.141 0.189544 92.2524 0 91.0089 0C89.7654 0 88.8998 0.192038 88.3763 0.581103C87.8554 0.970168 87.595 1.61362 87.595 2.52144C87.595 3.42926 87.8529 4.05026 88.3763 4.42187C88.8972 4.79348 89.7756 4.97554 91.0089 4.97554C91.8439 4.97554 92.5154 4.89823 93.0184 4.73611C93.5215 4.5765 93.8891 4.32211 94.1138 3.96796C94.3411 3.61381 94.456 3.13247 94.456 2.52393C94.456 1.60614 94.1905 0.957698 93.6644 0.576115L93.667 0.573621ZM92.5639 6.72384C92.1145 6.81861 91.5962 6.866 91.0089 6.866C89.842 6.866 88.9636 6.69391 88.3763 6.34974V26H93.6415V6.34974C93.3683 6.50436 93.0082 6.62906 92.5639 6.72384Z" fill="#333333"/><path d="M97.9109 8.59683C98.9475 6.95577 100.306 5.72872 101.994 4.91567C103.679 4.10263 105.497 3.69611 107.443 3.69611C111.245 3.69611 114.092 4.62138 115.981 6.47443C117.871 8.32498 118.816 11.1856 118.816 15.0563C118.816 17.3657 118.313 19.346 117.304 20.992C116.295 22.6381 114.945 23.8801 113.247 24.7156C111.549 25.5511 109.677 25.9676 107.627 25.9676C103.881 25.9676 101.064 25.0448 99.1799 23.1992C97.2955 21.3537 96.3533 18.4955 96.3533 14.6273C96.3533 12.2505 96.8716 10.2404 97.9057 8.59932L97.9109 8.59683ZM110.803 20.992C111.641 20.6279 112.299 19.9695 112.782 19.0193C113.262 18.0691 113.505 16.7472 113.505 15.0563C113.505 12.6346 112.938 10.8863 111.807 9.80891C110.675 8.7315 109.225 8.1928 107.461 8.1928C106.238 8.1928 105.206 8.37486 104.363 8.73898C103.521 9.10311 102.857 9.75903 102.377 10.7043C101.897 11.6495 101.654 12.9563 101.654 14.6248C101.654 17.0789 102.216 18.8447 103.342 19.9221C104.468 20.9995 105.926 21.5382 107.713 21.5382C108.937 21.5382 109.966 21.3562 110.803 20.992Z" fill="#333333"/><path d="M154.285 0.0249634H175.846V4.90822H159.583V10.8664H173.86V15.0738H159.583V21.1168H175.846V26H154.285V0.0249634Z" fill="#333333"/><path d="M197.788 6.18513C196.478 4.52911 194.568 3.69861 192.058 3.69861C190.482 3.69861 189.149 3.94053 188.059 4.42686C186.969 4.91319 186.052 5.77611 185.309 7.01563C184.566 8.25266 184.017 9.97851 183.655 12.1882L183.348 12.1583L183.925 4.24729H178.629V26.005H183.925V15.2932C183.925 13.7993 184.16 12.5174 184.63 11.445C185.1 10.3726 185.756 9.55703 186.591 8.99338C187.431 8.42974 188.391 8.14791 189.479 8.14791C190.623 8.14791 191.555 8.35741 192.28 8.77141C193.003 9.18292 193.546 9.87376 193.906 10.8439C194.269 11.8116 194.453 13.1185 194.453 14.7645V26.01H199.749V14.2707C199.749 10.5471 199.095 7.85362 197.79 6.19511L197.788 6.18513Z" fill="#333333"/><path d="M222.232 6.18513C220.922 4.52911 219.017 3.69861 216.502 3.69861C214.931 3.69861 213.596 3.94053 212.506 4.42686C211.41 4.91319 210.496 5.77611 209.753 7.01563C209.015 8.25266 208.461 9.97851 208.098 12.1882L207.795 12.1583L208.372 4.24729H203.073V26.005H208.372V15.2932C208.372 13.7993 208.607 12.5174 209.076 11.445C209.546 10.3726 210.2 9.55703 211.037 8.99338C211.872 8.42974 212.832 8.14791 213.923 8.14791C215.067 8.14791 215.999 8.35741 216.724 8.77141C217.449 9.18292 217.99 9.87376 218.353 10.8439C218.715 11.8116 218.894 13.1185 218.894 14.7645V26.01H224.193V14.2707C224.193 10.5471 223.536 7.85362 222.232 6.19511V6.18513Z" fill="#333333"/><path d="M228.207 8.59683C229.243 6.95577 230.602 5.72872 232.289 4.91567C233.975 4.10263 235.793 3.69611 237.738 3.69611C241.54 3.69611 244.388 4.62138 246.277 6.47443C248.167 8.32498 249.111 11.1856 249.111 15.0563C249.111 17.3657 248.608 19.346 247.6 20.992C246.591 22.6381 245.24 23.8801 243.542 24.7156C241.844 25.5511 239.973 25.9676 237.922 25.9676C234.176 25.9676 231.36 25.0448 229.476 23.1992C227.591 21.3537 226.649 18.4955 226.649 14.6273C226.649 12.2505 227.167 10.2404 228.201 8.59932L228.207 8.59683ZM241.101 20.992C241.939 20.6279 242.598 19.9695 243.08 19.0193C243.56 18.0691 243.803 16.7472 243.803 15.0563C243.803 12.6346 243.236 10.8863 242.105 9.80891C240.974 8.7315 239.523 8.1928 237.759 8.1928C236.536 8.1928 235.504 8.37486 234.662 8.73898C233.819 9.10311 233.155 9.75903 232.675 10.7043C232.195 11.6495 231.952 12.9563 231.952 14.6248C231.952 17.0789 232.514 18.8447 233.64 19.9221C234.766 20.9995 236.224 21.5382 238.012 21.5382C239.235 21.5382 240.264 21.3562 241.101 20.992Z" fill="#333333"/><path d="M270.935 6.40962C269.526 4.60146 267.565 3.69614 265.052 3.69614C263.41 3.69614 262.029 3.97297 260.911 4.52664C259.787 5.08031 258.876 5.95072 258.176 7.14535C257.474 8.33998 256.971 9.9087 256.667 11.854L256.312 11.7867L257.075 5.61902V0.0249634H251.777V26.0025H257.045L256.565 19.7176L256.938 19.6827C257.346 21.8724 258.247 23.4611 259.639 24.4488C261.031 25.4364 262.775 25.9327 264.868 25.9327C266.633 25.9327 268.116 25.586 269.314 24.8977C270.517 24.2068 271.438 23.0421 272.084 21.4061C272.728 19.77 273.052 17.5678 273.052 14.7895C273.052 11.0086 272.347 8.21527 270.938 6.40962H270.935ZM266.454 20.6254C265.645 21.8201 264.322 22.4161 262.491 22.4161C261.304 22.4161 260.226 22.1019 259.266 21.4784C258.304 20.8549 257.573 19.8623 257.075 18.503V14.9366C257.075 13.5225 257.313 12.298 257.788 11.2654C258.265 10.2304 258.916 9.44482 259.749 8.90113C260.581 8.36242 261.518 8.08808 262.558 8.08808C264.322 8.08808 265.617 8.67417 266.436 9.84635C267.258 11.021 267.67 12.8392 267.67 15.3007C267.67 17.7623 267.266 19.4308 266.454 20.6254Z" fill="#333333"/><path d="M275.818 1.22707V26H281.113V0.09729L275.818 1.22707Z" fill="#333333"/><path d="M288.899 6.72384C288.45 6.81861 287.931 6.866 287.344 6.866C286.179 6.866 285.304 6.69391 284.711 6.34974V26H289.976V6.34974C289.703 6.50436 289.343 6.62906 288.899 6.72384ZM289.999 0.573621C289.473 0.189544 288.59 0 287.344 0C286.098 0 285.235 0.192038 284.711 0.581103C284.193 0.970168 283.93 1.61362 283.93 2.52144C283.93 3.42926 284.193 4.05026 284.711 4.42187C285.232 4.79348 286.111 4.97554 287.344 4.97554C288.184 4.97554 288.853 4.89823 289.359 4.73611C289.859 4.5765 290.227 4.32211 290.454 3.96796C290.679 3.61381 290.794 3.13247 290.794 2.52393C290.794 1.60614 290.531 0.957698 290.002 0.576115L289.999 0.573621Z" fill="#333333"/><path d="M305.968 4.17992C304.472 4.17992 303.201 4.45426 302.149 5.00045C301.094 5.54664 300.228 6.46443 299.541 7.75383C298.857 9.03824 298.367 10.789 298.073 12.9987L297.769 12.9638L298.346 4.22731H293.559V26H298.855V15.4528C298.855 14.0362 299.087 12.8865 299.552 11.9936C300.014 11.1033 300.759 10.4424 301.783 10.0134C302.81 9.58194 304.163 9.36496 305.848 9.36496C306.29 9.36496 306.63 9.37244 306.867 9.38242L307.003 4.20736C306.53 4.18741 306.183 4.17743 305.971 4.17743L305.968 4.17992Z" fill="#333333"/><defs><linearGradient id="paint0_linear_850_596" x1="123.254" y1="13.0112" x2="149.847" y2="13.0112" gradientUnits="userSpaceOnUse"><stop stop-color="#F48058"/><stop offset="1" stop-color="#EF6771"/></linearGradient></defs><script xmlns=""/></svg>