<svg xmlns="http://www.w3.org/2000/svg" xmlns:xlink="http://www.w3.org/1999/xlink" viewBox="0 0 88.255 22.019" overflow="visible"><g><path d="M 0 17.82 L 0 0 C 9.842 0 17.82 7.978 17.82 17.82 Z" fill="rgb(0,0,0)"/><path d="M 17.82 0 L 17.82 5.792 C 14.621 5.792 12.028 3.199 12.028 0 Z M 0 17.82 L 0 12.028 C 3.199 12.028 5.791 14.621 5.791 17.82 Z M 33.808 17.168 L 28.561 17.168 L 28.561 14.966 L 33.437 14.966 C 34.642 14.966 35.656 14.776 36.481 14.396 C 37.323 14 37.966 13.357 38.412 12.466 C 38.857 11.575 39.08 10.379 39.08 8.877 C 39.08 7.376 38.857 6.179 38.412 5.288 C 37.966 4.397 37.323 3.762 36.481 3.383 C 35.656 2.987 34.642 2.789 33.437 2.789 L 28.561 2.789 L 28.561 0.586 L 33.784 0.586 C 35.533 0.586 36.985 0.916 38.14 1.576 C 39.311 2.236 40.186 3.185 40.763 4.422 C 41.357 5.66 41.654 7.145 41.654 8.877 C 41.654 10.61 41.357 12.095 40.763 13.332 C 40.186 14.57 39.311 15.518 38.14 16.178 C 36.985 16.838 35.541 17.168 33.808 17.168 Z M 30.195 17.168 L 27.72 17.168 L 27.72 0.586 L 30.195 0.586 Z M 46.076 3.308 L 43.601 3.308 L 43.601 0.586 L 46.076 0.586 Z M 46.076 17.168 L 43.601 17.168 L 43.601 5.165 L 46.076 5.165 Z M 58.789 17.168 L 57.229 17.168 C 56.817 17.168 56.446 17.094 56.116 16.945 C 55.786 16.797 55.522 16.558 55.324 16.228 C 55.126 15.881 55.027 15.419 55.027 14.842 L 55.027 10.04 L 54.977 9.718 C 54.977 8.976 54.804 8.357 54.457 7.862 C 54.127 7.351 53.467 7.095 52.477 7.095 C 51.652 7.095 50.943 7.309 50.349 7.738 C 49.771 8.167 49.326 8.712 49.012 9.372 L 47.428 7.615 C 47.709 7.202 48.097 6.79 48.592 6.377 C 49.087 5.965 49.681 5.618 50.374 5.338 C 51.083 5.057 51.875 4.917 52.75 4.917 C 54.235 4.917 55.373 5.329 56.165 6.154 C 56.974 6.963 57.378 8.101 57.378 9.57 L 57.378 14.272 C 57.378 14.536 57.427 14.726 57.526 14.842 C 57.642 14.941 57.807 14.99 58.021 14.99 L 58.789 14.99 Z M 50.918 17.416 C 49.928 17.416 49.153 17.16 48.592 16.648 C 48.031 16.12 47.75 15.444 47.75 14.619 C 47.75 13.794 48.022 13.109 48.567 12.565 C 49.128 12.02 49.862 11.55 50.77 11.154 L 55.348 9.174 L 55.67 10.758 L 51.735 12.589 C 51.19 12.853 50.794 13.109 50.547 13.357 C 50.299 13.604 50.176 13.901 50.176 14.248 C 50.176 14.611 50.308 14.899 50.572 15.114 C 50.836 15.328 51.232 15.436 51.76 15.436 C 52.238 15.436 52.675 15.37 53.071 15.238 C 53.484 15.089 53.83 14.883 54.111 14.619 C 54.408 14.355 54.631 14.05 54.779 13.703 C 54.944 13.357 55.027 12.969 55.027 12.54 L 55.101 13.728 C 55.002 14.272 54.787 14.833 54.457 15.411 C 54.144 15.972 53.698 16.45 53.121 16.846 C 52.543 17.226 51.809 17.416 50.918 17.416 Z M 62.839 17.168 L 60.364 17.168 L 60.364 0.586 L 62.839 0.586 Z M 70.107 17.416 C 68.985 17.416 67.987 17.16 67.112 16.648 C 66.238 16.12 65.561 15.386 65.083 14.446 C 64.604 13.505 64.365 12.408 64.365 11.154 C 64.365 9.9 64.604 8.803 65.083 7.862 C 65.561 6.922 66.238 6.196 67.112 5.684 C 67.987 5.173 68.985 4.917 70.107 4.917 C 71.245 4.917 72.244 5.173 73.102 5.684 C 73.96 6.196 74.636 6.922 75.131 7.862 C 75.626 8.803 75.874 9.9 75.874 11.154 C 75.874 12.408 75.626 13.505 75.131 14.446 C 74.636 15.386 73.96 16.12 73.102 16.648 C 72.244 17.16 71.245 17.416 70.107 17.416 Z M 70.107 15.362 C 70.75 15.362 71.311 15.213 71.79 14.916 C 72.285 14.619 72.673 14.165 72.953 13.555 C 73.234 12.928 73.374 12.128 73.374 11.154 C 73.374 10.181 73.234 9.389 72.953 8.778 C 72.673 8.151 72.285 7.689 71.79 7.392 C 71.311 7.095 70.75 6.947 70.107 6.947 C 69.48 6.947 68.919 7.095 68.424 7.392 C 67.945 7.689 67.566 8.151 67.285 8.778 C 67.021 9.389 66.889 10.181 66.889 11.154 C 66.889 12.128 67.021 12.928 67.285 13.555 C 67.566 14.165 67.945 14.619 68.424 14.916 C 68.919 15.213 69.48 15.362 70.107 15.362 Z M 81.82 22.019 C 80.236 22.019 78.982 21.78 78.058 21.301 C 77.151 20.839 76.697 20.212 76.697 19.42 C 76.697 19.057 76.796 18.736 76.994 18.455 C 77.192 18.191 77.448 17.968 77.761 17.787 C 78.066 17.61 78.39 17.468 78.727 17.366 C 78.347 17.234 78.042 17.028 77.811 16.747 C 77.58 16.467 77.464 16.112 77.464 15.683 C 77.464 15.353 77.547 15.023 77.712 14.693 C 77.877 14.347 78.116 14.008 78.43 13.678 C 78.743 13.332 79.106 13.01 79.519 12.713 L 80.014 12.911 C 79.898 13.109 79.766 13.34 79.618 13.604 C 79.469 13.868 79.395 14.132 79.395 14.396 C 79.395 14.71 79.494 14.949 79.692 15.114 C 79.906 15.279 80.311 15.361 80.905 15.361 L 84.617 15.361 C 85.756 15.361 86.647 15.584 87.29 16.03 C 87.934 16.475 88.255 17.16 88.255 18.084 C 88.255 18.843 88.008 19.519 87.513 20.113 C 87.034 20.707 86.317 21.169 85.36 21.499 C 84.403 21.846 83.223 22.019 81.82 22.019 Z M 81.895 20.138 C 83.215 20.138 84.229 19.982 84.939 19.668 C 85.648 19.371 86.003 18.95 86.003 18.406 C 86.003 18.043 85.863 17.779 85.582 17.614 C 85.302 17.465 84.873 17.391 84.295 17.391 L 79.345 17.391 C 79.197 17.556 79.048 17.738 78.9 17.936 C 78.753 18.146 78.675 18.397 78.677 18.653 C 78.677 19.099 78.941 19.454 79.469 19.718 C 79.997 19.998 80.806 20.138 81.895 20.138 Z M 82.365 13.53 C 81.408 13.53 80.566 13.348 79.84 12.985 C 79.114 12.622 78.545 12.111 78.133 11.451 C 77.72 10.791 77.514 10.048 77.514 9.223 C 77.514 8.382 77.72 7.639 78.133 6.996 C 78.545 6.336 79.114 5.824 79.84 5.461 C 80.566 5.098 81.408 4.917 82.365 4.917 C 83.322 4.917 84.163 5.098 84.889 5.461 C 85.632 5.824 86.201 6.336 86.597 6.996 C 87.01 7.639 87.216 8.382 87.216 9.223 C 87.216 10.048 87.01 10.791 86.597 11.451 C 86.201 12.111 85.632 12.622 84.889 12.985 C 84.163 13.348 83.322 13.53 82.365 13.53 Z M 82.365 11.698 C 83.058 11.698 83.644 11.484 84.122 11.055 C 84.617 10.626 84.865 10.015 84.865 9.223 C 84.865 8.431 84.617 7.821 84.122 7.392 C 83.644 6.963 83.058 6.748 82.365 6.748 C 81.672 6.748 81.078 6.963 80.583 7.392 C 80.104 7.821 79.865 8.431 79.865 9.223 C 79.865 10.015 80.104 10.626 80.583 11.055 C 81.078 11.484 81.672 11.698 82.365 11.698 Z M 87.587 3.259 L 85.087 5.981 L 84.419 5.437 L 85.112 2.393 Z" fill="rgb(0,0,0)"/></g></svg>